:SAMPLES-PER-SECOND 30
:FRAME-RANGE 1-663
:FULLY-SPECIFIED
:DEGREES
125
root  34.7872 39.3809 103.559 0.823843 -57.1767 0.10357
RightUpLeg  2.79464 -7.58712 -9.38054
RightLeg  -4.57759 -9.3108 -0.177814
RightFoot  3.79245 -1.35519 10.3715
RightToes  2.91037e-010 0 -3.6325e-017
Spine  1.66491 0.503183 0.218456
Spine1  3.97173 1.2602 -3.6571
HEad  27.6162 -9.63189 -1.25972
LeftShoulder1  1.2832 0.0170647 -30.7409
LeftArm  14.7853 4.25841 -29.7677
LeftForeArm  0.188293 -12.4338 -13.712
LeftHand  0.414179 -2.23956 -6.13092
RightShoulder  10.6276 14.2418 52.389
RightArm  8.12003 4.62607 18.162
RightForeArm  23.7427 -2.99564 16.9782
RightHand  0.356562 3.88754 4.19311
LeftUpLeg  -0.542224 5.97864 -0.179474
LeftLeg  2.0841 0.0775115 -2.48582
LeftFoot  -1.30656 0.049312 -0.480856
LeftToes  -4.9116e-011 5.71383e-011 -3.31847e-011
126
root  34.7799 39.374 103.657 0.718737 -57.4803 0.121402
RightUpLeg  2.92033 -7.59763 -9.48195
RightLeg  -4.61211 -9.22879 -0.246909
RightFoot  3.82753 -1.38995 10.6083
RightToes  2.91037e-010 0 -3.6325e-017
Spine  1.57415 0.579487 0.539473
Spine1  3.88862 1.40844 -3.99049
HEad  27.7619 -10.0209 -1.14998
LeftShoulder1  1.29888 -0.0380899 -30.6101
LeftArm  13.3785 4.63871 -29.8955
LeftForeArm  1.67386 -11.4151 -14.2692
LeftHand  0.394255 -2.08608 -5.96164
RightShoulder  10.5921 14.104 52.6168
RightArm  8.8858 4.85254 18.2491
RightForeArm  22.9735 -2.21559 17.0252
RightHand  0.351089 3.87482 4.13135
LeftUpLeg  -0.335656 5.96466 -0.313092
LeftLeg  2.11505 0.385185 -2.46879
LeftFoot  -1.41551 0.0324669 -0.275583
LeftToes  -4.9116e-011 5.71383e-011 -3.31847e-011
127
root  34.7678 39.3639 103.753 0.233814 -57.7256 0.437064
RightUpLeg  3.12684 -7.84906 -9.86183
RightLeg  -4.46149 -8.59554 -0.316789
RightFoot  3.66997 -1.38671 10.6878
RightToes  2.91037e-010 0 -3.6325e-017
Spine  1.54214 0.612432 0.565045
Spine1  3.9161 1.47075 -4.12041
HEad  27.9732 -10.2832 -1.32384
LeftShoulder1  1.29434 -0.0162214 -30.7094
LeftArm  12.9555 5.00831 -29.7728
LeftForeArm  2.03834 -10.8453 -14.6031
LeftHand  0.387248 -2.00097 -5.92818
RightShoulder  10.6888 14.2462 52.6692
RightArm  8.63473 4.87406 18.5056
RightForeArm  23.4243 -1.75957 16.8957
RightHand  0.352266 3.89062 4.21491
LeftUpLeg  0.101801 5.82766 -0.630552
LeftLeg  1.94919 0.807771 -2.40704
LeftFoot  -1.43644 0.0209605 -0.126839
LeftToes  -4.9116e-011 5.71383e-011 -3.31847e-011
128
root  34.7484 39.3528 103.8 0.238891 -57.8059 0.348492
RightUpLeg  3.22522 -7.80121 -9.85657
RightLeg  -4.40275 -8.53195 -0.381203
RightFoot  3.57976 -1.40053 10.8528
RightToes  2.91037e-010 0 -3.6325e-017
Spine  1.47056 0.620087 0.693794
Spine1  3.81887 1.49811 -4.25989
HEad  28.4034 -10.6804 -1.38559
LeftShoulder1  1.29371 -0.0199207 -30.6771
LeftArm  12.1445 5.39304 -29.8078
LeftForeArm  2.73202 -10.14 -14.9626
LeftHand  0.39216 -1.98484 -6.02007
RightShoulder  10.6883 14.1405 52.9728
RightArm  10.0838 5.12757 18.6198
RightForeArm  22.1372 -0.915967 16.9976
RightHand  0.352701 3.9479 4.11939
LeftUpLeg  0.110274 5.93401 -0.585944
LeftLeg  2.25166 0.784119 -2.45162
LeftFoot  -1.66752 0.013925 -0.043027
LeftToes  -4.9116e-011 5.71383e-011 -3.31847e-011
129
root  34.7242 39.3474 103.846 0.0861536 -57.8062 0.390213
RightUpLeg  3.39091 -7.8561 -9.94914
RightLeg  -4.3334 -8.41729 -0.421002
RightFoot  3.4924 -1.39925 10.887
RightToes  2.91037e-010 0 -3.6325e-017
Spine  1.28324 0.621821 0.75226
Spine1  3.95701 1.50182 -4.26671
HEad  28.7718 -11.0079 -1.47899
LeftShoulder1  1.29491 0.00107888 -30.844
LeftArm  11.8937 5.61425 -29.7571
LeftForeArm  2.7657 -9.68869 -15.2181
LeftHand  0.37728 -2.0003 -5.77208
RightShoulder  10.7523 14.2264 53.029
RightArm  11.1659 5.20291 18.8775
RightForeArm  21.1783 -0.206942 17.0229
RightHand  0.35786 3.89215 4.20691
LeftUpLeg  0.320448 5.89757 -0.664969
LeftLeg  2.23463 0.819173 -2.40677
LeftFoot  -1.66526 0.00087223 0.139716
LeftToes  -4.9116e-011 5.71383e-011 -3.31847e-011
130
root  34.6923 39.3477 103.89 -0.401992 -57.7141 0.703691
RightUpLeg  3.69875 -8.01917 -10.2189
RightLeg  -4.24162 -8.28817 -0.471166
RightFoot  3.37301 -1.40149 11.0026
RightToes  2.91037e-010 0 -3.6325e-017
Spine  1.22884 0.633346 0.704143
Spine1  4.04666 1.52366 -4.29411
HEad  29.0942 -11.2286 -1.53668
LeftShoulder1  1.29604 -0.00709139 -30.9131
LeftArm  11.2848 5.83728 -29.7876
LeftForeArm  3.26697 -9.12011 -15.4785
LeftHand  0.400263 -1.82877 -6.29579
RightShoulder  10.826 14.3655 52.9778
RightArm  10.9688 4.90728 19.2474
RightForeArm  21.4947 0.235993 16.8724
RightHand  0.361587 4.00891 4.19237
LeftUpLeg  0.768675 5.79728 -0.869937
LeftLeg  1.97108 0.84531 -2.38348
LeftFoot  -1.64434 0.000814554 0.126803
LeftToes  -4.9116e-011 5.71383e-011 -3.31847e-011
131
root  34.6664 39.3456 103.895 -0.222671 -57.5593 0.547695
RightUpLeg  3.73894 -7.91941 -10.0938
RightLeg  -4.27019 -8.53713 -0.473679
RightFoot  3.35218 -1.39676 10.9808
RightToes  2.91037e-010 0 -3.6325e-017
Spine  1.03395 0.663581 0.856751
Spine1  4.0723 1.54056 -4.25463
HEad  29.2354 -11.6105 -1.65044
LeftShoulder1  1.29523 0.021507 -31.1364
LeftArm  11.6879 6.00071 -29.778
LeftForeArm  2.87111 -9.02158 -15.5816
LeftHand  0.396612 -1.85791 -6.20913
RightShoulder  10.7681 14.2515 53.0314
RightArm  11.8643 5.00073 19.326
RightForeArm  20.9669 0.758644 16.8719
RightHand  0.378753 4.0027 4.40728
LeftUpLeg  0.674973 5.87032 -0.755134
LeftLeg  2.12585 0.626145 -2.40668
LeftFoot  -1.68752 -0.00595491 0.225366
LeftToes  -4.9116e-011 5.71383e-011 -3.31847e-011
